<?xml version="1.0" standalone="no"?>
<!DOCTYPE svg PUBLIC "-//W3C//DTD SVG 20010904//EN"
 "http://www.w3.org/TR/2001/REC-SVG-20010904/DTD/svg10.dtd">
<svg version="1.0" xmlns="http://www.w3.org/2000/svg"
 width="1000.000000pt" height="348.000000pt" viewBox="0 0 1000.000000 348.000000"
 preserveAspectRatio="xMidYMid meet">

<g transform="translate(0.000000,348.000000) scale(0.100000,-0.100000)"
fill="#000000" stroke="none">
<path d="M1725 3094 c-622 -68 -1109 -514 -1221 -1119 -22 -118 -22 -349 -1
-470 86 -479 419 -876 877 -1045 154 -57 266 -75 465 -75 199 0 311 18 466 75
457 169 791 567 876 1044 24 135 21 364 -6 493 -114 549 -525 962 -1069 1073
-95 19 -308 32 -387 24z m365 -233 c345 -77 630 -300 785 -616 123 -249 153
-525 86 -787 -132 -514 -587 -868 -1116 -868 -311 0 -595 118 -815 339 -450
451 -448 1173 5 1623 175 174 418 295 660 327 98 14 294 4 395 -18z"/>
<path d="M2330 2566 c0 -3 10 -21 21 -41 25 -41 27 -72 9 -115 -15 -36 -14
-36 -40 -10 -27 27 -54 25 -77 -3 -10 -13 -28 -29 -40 -36 -31 -16 -48 -77
-35 -125 9 -32 9 -37 -4 -32 -9 3 -35 6 -60 6 -40 0 -46 3 -70 40 -24 37 -26
46 -21 105 4 39 2 65 -3 65 -6 0 -10 -8 -11 -17 0 -10 -4 -42 -8 -70 -5 -36
-3 -62 6 -84 19 -46 16 -51 -17 -34 -21 11 -33 28 -44 63 -37 124 -56 137 -30
21 9 -41 24 -82 33 -93 15 -18 15 -18 -9 -11 -14 4 -49 30 -77 58 -61 59 -69
51 -18 -14 23 -30 55 -55 95 -74 33 -16 60 -32 60 -37 0 -11 12 -12 -188 22
-236 41 -384 57 -582 65 -149 6 -333 -4 -348 -20 -10 -10 53 -66 123 -110 122
-76 233 -123 336 -141 119 -20 181 -14 245 24 27 16 58 32 69 36 39 11 329 36
335 28 4 -4 11 -19 17 -33 l11 -26 -48 5 c-39 4 -58 -1 -101 -24 -86 -47 -269
-231 -349 -351 -71 -105 -218 -388 -208 -398 8 -8 299 141 383 196 103 67 185
139 271 237 92 104 129 176 120 232 l-6 39 32 -14 c21 -9 32 -20 32 -32 -22
-282 -26 -305 -66 -380 -32 -61 -38 -82 -38 -133 0 -89 26 -205 65 -287 75
-160 176 -306 198 -284 18 18 27 242 17 417 -10 160 -42 411 -75 588 -8 43
-15 84 -15 92 0 30 19 11 40 -41 17 -41 35 -64 74 -95 73 -55 80 -50 19 13
-28 28 -54 63 -58 75 -7 23 -6 23 17 9 25 -17 145 -43 154 -34 3 3 -27 16 -66
28 -56 18 -75 30 -86 51 -20 38 -19 39 23 21 28 -11 54 -14 103 -9 93 10 106
30 15 23 -65 -6 -73 -4 -108 21 -37 26 -39 31 -40 85 -2 61 -6 58 52 42 30 -9
73 13 119 61 48 53 51 66 18 99 l-24 24 45 15 c47 16 55 14 146 -32 4 -2 7 1
7 7 0 16 -75 51 -110 51 -17 0 -46 -7 -65 -14 l-35 -15 -51 51 -50 50 15 39
c9 22 16 49 16 61 0 27 -38 108 -51 108 -5 0 -9 -2 -9 -4z"/>
<path d="M3810 2369 c-98 -9 -189 -38 -236 -74 -17 -13 -43 -46 -55 -72 -24
-48 -24 -48 -24 -443 0 -395 0 -395 24 -443 44 -91 131 -131 316 -147 129 -11
296 0 382 25 100 30 153 85 173 180 7 36 10 177 8 417 -3 346 -4 365 -24 409
-41 89 -136 133 -318 149 -122 11 -125 11 -246 -1z m360 -136 c85 -42 85 -39
88 -441 3 -338 2 -356 -17 -396 -36 -74 -105 -97 -293 -97 -204 -1 -287 33
-308 126 -12 52 -12 658 0 709 5 22 22 53 38 69 46 46 104 57 287 54 143 -2
165 -4 205 -24z"/>
<path d="M6542 2370 c-116 -12 -206 -44 -251 -89 -65 -65 -65 -64 -68 -598
l-4 -483 70 0 71 0 0 215 0 215 310 0 310 0 0 -215 0 -215 70 0 70 0 0 478 c0
302 -4 491 -11 515 -13 47 -60 102 -110 128 -86 43 -292 65 -457 49z m358
-140 c74 -41 80 -63 80 -287 l0 -193 -310 0 -310 0 0 165 c0 193 10 252 49
289 49 47 98 56 281 53 155 -2 168 -4 210 -27z"/>
<path d="M7572 2355 c-101 -22 -162 -62 -196 -128 -27 -53 -29 -64 -29 -174
-1 -101 2 -124 20 -158 53 -101 106 -124 393 -170 328 -52 345 -64 339 -237
-4 -91 -6 -98 -34 -128 -53 -55 -209 -81 -374 -61 -100 12 -133 25 -169 63
-24 26 -42 106 -42 186 l0 43 -67 -3 -68 -3 2 -90 c1 -49 7 -110 14 -134 16
-58 72 -113 141 -139 76 -28 242 -46 362 -38 197 13 304 55 348 138 21 39 23
56 23 190 l0 146 -30 44 c-53 74 -105 93 -384 139 -134 22 -256 46 -272 55
-51 26 -64 58 -64 154 1 108 19 144 90 180 47 24 59 25 220 25 161 0 173 -1
220 -25 62 -31 85 -72 85 -152 l0 -58 70 0 70 0 0 68 c0 87 -14 134 -52 178
-68 77 -171 104 -398 103 -92 0 -181 -6 -218 -14z"/>
<path d="M4630 1884 c0 -313 4 -490 11 -519 15 -59 67 -117 127 -143 69 -30
212 -45 303 -32 90 13 153 40 201 87 l38 37 32 -34 c74 -75 210 -108 371 -90
156 18 230 67 262 172 13 43 15 127 15 525 l0 473 -70 0 -70 0 0 -465 c0 -522
0 -525 -69 -567 -32 -21 -48 -23 -161 -23 -138 0 -171 11 -214 68 -21 28 -21
38 -24 508 l-3 479 -69 0 -69 0 -3 -472 c-3 -455 -4 -474 -23 -508 -37 -63
-73 -75 -215 -75 -143 0 -178 13 -211 75 -18 32 -19 65 -19 507 l0 473 -70 0
-70 0 0 -476z"/>
<path d="M8470 1780 l0 -580 70 0 70 0 0 165 0 165 218 0 c301 0 388 17 462
91 68 68 75 100 75 324 0 188 -1 203 -23 250 -29 63 -55 91 -112 120 -78 39
-135 45 -455 45 l-305 0 0 -580z m671 438 c76 -44 84 -72 84 -273 0 -187 -5
-208 -64 -258 -46 -38 -111 -47 -341 -47 l-210 0 0 306 0 305 243 -3 242 -3
46 -27z"/>
<path d="M9295 1176 c-95 -42 -140 -166 -96 -261 71 -153 261 -153 332 0 35
75 16 168 -47 227 -52 48 -127 62 -189 34z m153 -43 c52 -39 67 -70 67 -138 0
-69 -15 -99 -69 -139 -38 -29 -124 -29 -162 0 -106 79 -95 238 21 290 39 18
110 12 143 -13z"/>
<path d="M9290 995 c0 -108 1 -115 20 -115 17 0 20 7 20 45 0 43 1 45 30 45
30 0 33 -5 42 -65 2 -11 11 -21 21 -23 14 -3 17 4 17 35 0 22 -6 48 -14 58
-11 16 -11 21 0 33 43 42 -8 102 -87 102 l-49 0 0 -115z m108 51 c5 -22 -13
-36 -45 -36 -19 0 -23 5 -23 31 0 28 2 30 32 27 23 -2 34 -9 36 -22z"/>
</g>
</svg>
