<?xml version="1.0" standalone="no"?>
<!DOCTYPE svg PUBLIC "-//W3C//DTD SVG 20010904//EN"
 "http://www.w3.org/TR/2001/REC-SVG-20010904/DTD/svg10.dtd">
<svg version="1.0" xmlns="http://www.w3.org/2000/svg"
 width="100.000000pt" height="120.000000pt" viewBox="0 0 100.000000 120.000000"
 preserveAspectRatio="xMidYMid meet">

<g transform="translate(0.000000,120.000000) scale(0.100000,-0.100000)"
fill="#000000" stroke="none">
<path d="M674 1005 c-16 -25 -16 -27 6 -50 28 -30 51 -32 73 -7 23 25 21 48
-5 66 -32 23 -55 20 -74 -9z"/>
<path d="M443 388 c-6 -7 -13 -22 -15 -33 -5 -30 -32 -25 -36 7 -3 25 -6 27
-35 21 -54 -10 -123 -50 -158 -91 -19 -22 -59 -55 -90 -75 -59 -37 -73 -55
-59 -76 9 -16 43 -17 246 -6 158 8 162 8 237 -19 86 -29 112 -32 143 -13 74
43 110 59 175 77 80 22 99 38 99 83 0 42 -16 64 -60 87 -48 25 -50 25 -50 0 0
-15 -14 -23 -67 -39 -158 -47 -152 -46 -228 -21 -39 12 -72 24 -74 26 -2 2 4
13 14 25 15 15 17 24 9 37 -14 22 -38 26 -51 10z m485 -120 c-2 -23 -9 -34
-23 -37 -11 -2 -25 -10 -31 -19 -7 -10 -18 -13 -29 -8 -14 5 -16 9 -6 19 6 6
19 12 28 12 10 0 20 13 25 33 12 44 40 44 36 0z"/>
</g>
</svg>
