<svg xmlns="http://www.w3.org/2000/svg" enable-background="new 0 0 24 24" viewBox="0 0 24 24"><path fill="#FFF" d="M12.546,24l-0.639-0.219c0,0,0.078-3.257-1.091-3.49c-0.78-0.904,0.125-38.338,2.93-0.125c0,0-0.966,0.484-1.138,1.31C12.422,22.286,12.546,24,12.546,24L12.546,24z"/><path fill="#A6A385" d="M12.546,24l-0.639-0.219c0,0,0.078-3.257-1.091-3.49c-0.78-0.904,0.125-38.338,2.93-0.125c0,0-0.966,0.484-1.138,1.31C12.422,22.286,12.546,24,12.546,24L12.546,24z"/><path fill="#FFF" d="M12.889,20.852c0,0,5.595-3.678,4.285-11.33c-1.262-5.562-4.238-7.387-4.566-8.088c-0.359-0.498-0.701-1.371-0.701-1.371l0.234,15.474C12.142,15.552,11.658,20.275,12.889,20.852L12.889,20.852L12.889,20.852z"/><path fill="#499D4A" d="M12.889,20.852c0,0,5.595-3.678,4.285-11.33c-1.262-5.562-4.238-7.387-4.566-8.088c-0.359-0.498-0.701-1.371-0.701-1.371l0.234,15.474C12.142,15.552,11.658,20.275,12.889,20.852L12.889,20.852L12.889,20.852z"/><path fill="#FFF" d="M11.58,21.055c0,0-5.252-3.585-4.94-9.896c0.296-6.311,4.006-9.413,4.722-9.974C11.829,0.685,11.845,0.499,11.876,0c0.328,0.701,0.266,10.488,0.312,11.641C12.328,16.083,11.938,20.213,11.58,21.055L11.58,21.055z"/><path fill="#58AA50" d="M11.58,21.055c0,0-5.252-3.585-4.94-9.896c0.296-6.311,4.006-9.413,4.722-9.974C11.829,0.685,11.845,0.499,11.876,0c0.328,0.701,0.266,10.488,0.312,11.641C12.328,16.083,11.938,20.213,11.58,21.055L11.58,21.055z"/><path fill="#918E74" d="M12,18.545c-0.119,1.256-0.272,2.162-0.42,2.509c0,0-0.024-0.016-0.069-0.049c0.368,0.862,0.397,2.234,0.397,2.651c0,0.079-0.001,0.124-0.001,0.124l0,0L12,23.813V18.545L12,18.545z"/><path fill="#408940" d="M11.907,0.063L11.907,0.063l0,0.039C11.943,0.255,11.974,0.525,12,0.884V0.286C11.942,0.15,11.907,0.063,11.907,0.063L11.907,0.063z"/><path fill="#4D9446" d="M11.876,0c-0.031,0.499-0.047,0.685-0.514,1.184c-0.717,0.561-4.427,3.662-4.722,9.974c-0.009,0.185-0.014,0.367-0.013,0.548c0.005,5.971,4.954,9.349,4.954,9.349c0.148-0.347,0.301-1.253,0.42-2.509V0.884c-0.026-0.359-0.057-0.629-0.092-0.781l0,0C11.898,0.058,11.887,0.024,11.876,0L11.876,0z"/></svg>