<svg xmlns="http://www.w3.org/2000/svg" xmlns:xlink="http://www.w3.org/1999/xlink" viewBox="0 0 66 54" fill="#fff" fill-rule="evenodd" stroke="#000" stroke-linecap="round" stroke-linejoin="round"><use xlink:href="#A" x=".5" y=".5"/><symbol id="A" overflow="visible"><path d="M64 6.172c0 3.4-2.763 6.177-6.172 6.177a6.18 6.18 0 0 1-6.174-6.177A6.18 6.18 0 0 1 57.828 0C61.237 0 64 2.763 64 6.172M0 26.208C.001 11.733 11.73.003 26.206 0c14.475.003 26.2 11.733 26.204 26.208-.003 14.472-11.73 26.2-26.204 26.204C11.73 52.409.002 40.679 0 26.208m13.604-12.605a17.76 17.76 0 0 0-5.218 12.605 17.74 17.74 0 0 0 5.218 12.597 17.75 17.75 0 0 0 12.602 5.221c4.933-.003 9.36-2 12.6-5.22 3.232-3.236 5.218-7.666 5.218-12.597s-1.987-9.363-5.218-12.605c-3.24-3.227-7.666-5.212-12.6-5.215-4.935.003-9.364 1.988-12.602 5.215" stroke="none" fill="#d3002d"/></symbol></svg>