<svg xmlns="http://www.w3.org/2000/svg" enable-background="new 0 0 24 24" viewBox="0 0 24 24"><linearGradient id="a" x1="-1275.307" x2="-1274.307" y1="-2130.55" y2="-2130.55" gradientTransform="scale(23.6719) rotate(-90 -1702.024 427.77)" gradientUnits="userSpaceOnUse"><stop offset="0" stop-color="#e2068b"/><stop offset="1" stop-color="#eb5a14"/></linearGradient><path fill="url(#a)" d="M12,0v24l0,0c6.6,0,12-5.401,12-12C24,5.4,18.6,0,12,0L12,0z"/><linearGradient id="b" x1="-1275.307" x2="-1274.307" y1="-2130.044" y2="-2130.044" gradientTransform="scale(23.6719) rotate(-90 -1702.024 427.77)" gradientUnits="userSpaceOnUse"><stop offset="0" stop-color="#c50579"/><stop offset="1" stop-color="#cd4e11"/></linearGradient><path fill="url(#b)" d="M12,0C5.4,0,0,5.4,0,12l0,0c0,6.599,5.4,12,12,12l0,0V0L12,0L12,0z"/><path fill="#FFF" d="M8.926,18.196v-2.78l-2.477,1.428V7.155c0,0,1.447,0.834,2.477,1.429v-2.78L19.68,12L8.926,18.196L8.926,18.196z"/><linearGradient id="c" x1="-1275.307" x2="-1274.307" y1="-2130.297" y2="-2130.297" gradientTransform="scale(23.6719) rotate(-90 -1702.104 427.85)" gradientUnits="userSpaceOnUse"><stop offset="0" stop-color="#e2068b"/><stop offset="1" stop-color="#eb5a14"/></linearGradient><polygon fill="url(#c)" points="7.5 8.955 7.5 12 8.926 12 8.926 9.773 7.5 8.955"/><linearGradient id="d" x1="-1275.307" x2="-1274.307" y1="-2130.297" y2="-2130.297" gradientTransform="matrix(0 -23.6719 -23.6719 0 -50416.887 -30163.998)" gradientUnits="userSpaceOnUse"><stop offset="0" stop-color="#e2068b"/><stop offset="1" stop-color="#eb5a14"/></linearGradient><path fill="url(#d)" d="M9.975,10.374c0,0.703,0,1.165,0,1.626h2.836L9.975,10.374L9.975,10.374z"/><linearGradient id="e" x1="-1275.307" x2="-1274.307" y1="-2130.297" y2="-2130.297" gradientTransform="matrix(0 -23.6719 -23.6719 0 -50414.48 -30163.998)" gradientUnits="userSpaceOnUse"><stop offset="0" stop-color="#e2068b"/><stop offset="1" stop-color="#eb5a14"/></linearGradient><path fill="url(#e)" d="M9.975,7.574c0,0,0,1.133,0,1.614C12.349,10.558,14.85,12,14.85,12h2.775L9.975,7.574L9.975,7.574z"/><path fill="#DEDEDE" d="M19.68,12h-2.055l-7.65,4.426c0,0,0-1.133,0-1.615L14.85,12l0,0h-2.039l-2.836,1.635c0-0.707,0-1.17,0-1.635H8.926v2.239L7.5,15.061V12H6.449v4.844l2.477-1.428v2.78L19.68,12L19.68,12z"/><linearGradient id="f" x1="-1275.307" x2="-1274.307" y1="-2130.297" y2="-2130.297" gradientTransform="scale(23.6719) rotate(-90 -1702.104 427.85)" gradientUnits="userSpaceOnUse"><stop offset="0" stop-color="#c50579"/><stop offset="1" stop-color="#cd4e11"/></linearGradient><polygon fill="url(#f)" points="8.926 12 7.5 12 7.5 15.061 8.926 14.239 8.926 12"/><linearGradient id="g" x1="-1275.307" x2="-1274.307" y1="-2130.297" y2="-2130.297" gradientTransform="matrix(0 -23.6719 -23.6719 0 -50416.887 -30163.998)" gradientUnits="userSpaceOnUse"><stop offset="0" stop-color="#c50579"/><stop offset="1" stop-color="#cd4e11"/></linearGradient><path fill="url(#g)" d="M12.811,12H9.975c0,0.464,0,0.928,0,1.635L12.811,12L12.811,12z"/><linearGradient id="h" x1="-1275.307" x2="-1274.307" y1="-2130.297" y2="-2130.297" gradientTransform="matrix(0 -23.6719 -23.6719 0 -50414.48 -30163.998)" gradientUnits="userSpaceOnUse"><stop offset="0" stop-color="#c50579"/><stop offset="1" stop-color="#cd4e11"/></linearGradient><path fill="url(#h)" d="M17.625,12H14.85l0,0l-4.875,2.81c0,0.482,0,1.615,0,1.615L17.625,12L17.625,12z"/></svg>