<?xml version="1.0" standalone="no"?>
<!DOCTYPE svg PUBLIC "-//W3C//DTD SVG 20010904//EN"
 "http://www.w3.org/TR/2001/REC-SVG-20010904/DTD/svg10.dtd">
<svg version="1.0" xmlns="http://www.w3.org/2000/svg"
 width="2363.000000pt" height="2363.000000pt" viewBox="0 0 2363.000000 2363.000000"
 preserveAspectRatio="xMidYMid meet">

<g transform="translate(0.000000,2363.000000) scale(0.100000,-0.100000)"
fill="#000000" stroke="none">
<path d="M11460 22640 c-1407 -359 -3918 -1059 -6925 -1930 -1394 -404 -1615
-470 -1678 -501 -206 -104 -351 -272 -415 -481 -45 -143 -158 -771 -231 -1278
-102 -707 -171 -1435 -213 -2260 -17 -340 -17 -1631 0 -1950 59 -1103 165
-1977 348 -2885 415 -2054 1152 -3825 2228 -5352 66 -95 125 -173 129 -173 19
0 644 265 1037 440 255 114 629 288 946 439 l150 72 74 -45 c89 -55 187 -97
300 -128 74 -20 108 -23 260 -23 154 0 185 3 260 24 164 47 286 108 399 199
36 30 58 42 66 36 7 -5 43 -32 81 -61 304 -229 736 -267 1089 -94 295 145 503
412 571 734 11 54 14 175 14 590 l0 523 33 19 c67 39 652 428 872 580 240 166
616 434 795 567 l105 78 543 0 542 0 0 -540 c0 -348 -4 -557 -11 -589 -8 -37
-22 -64 -52 -96 -41 -45 -65 -56 -1237 -546 -657 -274 -1213 -511 -1234 -527
-21 -15 -53 -52 -70 -82 -44 -78 -43 -155 2 -267 56 -135 138 -198 257 -196
53 1 177 45 1128 402 587 220 1078 401 1091 401 30 0 87 -39 103 -70 9 -19 13
-114 13 -371 0 -318 2 -352 20 -411 26 -86 80 -147 168 -190 61 -30 74 -33
162 -33 122 1 193 27 262 96 92 92 92 90 98 519 5 347 6 377 24 403 22 32 64
57 97 57 12 0 504 -181 1093 -402 985 -370 1076 -402 1131 -402 120 1 199 64
253 205 55 139 36 252 -56 330 -31 26 -312 148 -1234 532 -688 288 -1208 510
-1228 526 -19 15 -45 47 -57 71 l-23 43 0 568 0 569 2058 2 2057 3 96 27 c243
67 418 167 575 330 164 170 259 347 321 603 16 65 18 276 20 3019 l3 2949 249
331 c669 893 1343 1860 1978 2841 84 128 85 117 -28 213 -131 111 -180 129
-944 351 -3208 931 -5378 1543 -7060 1991 -444 118 -1077 280 -1091 279 -5 0
-146 -36 -314 -79z m-3105 -4020 c244 -28 481 -112 682 -242 293 -190 521
-487 633 -827 167 -505 63 -1053 -280 -1476 -218 -268 -537 -460 -894 -537
-139 -30 -442 -32 -591 -4 -622 116 -1111 594 -1247 1219 -19 88 -22 132 -22
317 0 184 3 229 22 313 110 494 427 892 877 1102 253 118 545 166 820 135z
m9984 -43 c263 -72 477 -283 541 -533 80 -312 -85 -649 -394 -804 l-78 -40
-4164 0 -4164 0 -4 23 c-3 12 -10 64 -16 115 -23 182 -95 410 -184 586 -125
246 -300 457 -531 643 l-40 32 4485 -2 c4241 -2 4488 -3 4549 -20z m-91 -4769
l-3 -2983 -27 -80 c-55 -158 -161 -307 -287 -399 -70 -52 -182 -105 -268 -126
-75 -20 -136 -20 -3895 -20 l-3818 0 0 1012 c0 556 2 1009 4 1007 2 -2 126
-226 275 -498 149 -271 291 -518 315 -550 102 -131 254 -249 403 -311 134 -56
206 -72 353 -77 169 -6 268 14 415 86 226 111 391 311 457 556 32 121 30 334
-5 467 -29 110 -3 45 -521 1303 -576 1396 -567 1377 -703 1573 -114 164 -245
276 -465 396 -170 93 -377 156 -577 176 -57 5 -275 10 -484 10 l-381 0 85 41
c340 164 621 488 807 929 45 106 103 292 122 385 6 33 13 66 15 73 4 9 831 12
4095 12 l4090 0 -2 -2982z m-8195 1170 c309 -85 569 -291 720 -568 53 -98
1046 -2503 1069 -2590 27 -105 27 -252 -1 -341 -53 -169 -196 -297 -382 -345
-93 -24 -252 -16 -347 18 -120 43 -245 137 -312 234 -16 22 -285 508 -599
1079 -314 572 -576 1044 -581 1049 -7 7 -10 -1031 -10 -3015 0 -2973 0 -3027
-19 -3082 -75 -217 -254 -398 -460 -467 -393 -131 -821 96 -931 493 l-16 59
-18 -63 c-32 -115 -92 -216 -186 -310 -136 -138 -284 -206 -470 -216 -289 -17
-563 142 -690 402 -75 152 -70 1 -71 1975 -1 1102 -4 1760 -10 1736 -27 -113
-126 -249 -233 -318 -169 -109 -395 -108 -563 2 -111 73 -188 178 -227 309
-14 49 -16 200 -16 1507 0 1559 -1 1527 51 1684 130 399 457 694 864 780 87
18 153 19 1715 17 l1625 -2 98 -27z"/>
<path d="M11700 15140 l0 -280 2595 0 2595 0 0 280 0 280 -2595 0 -2595 0 0
-280z"/>
<path d="M12340 13555 l0 -275 2275 0 2275 0 0 275 0 275 -2275 0 -2275 0 0
-275z"/>
<path d="M12880 11970 l0 -280 2005 0 2005 0 0 280 0 280 -2005 0 -2005 0 0
-280z"/>
</g>
</svg>
