<?xml version="1.0" standalone="no"?>
<!DOCTYPE svg PUBLIC "-//W3C//DTD SVG 20010904//EN"
 "http://www.w3.org/TR/2001/REC-SVG-20010904/DTD/svg10.dtd">
<svg version="1.0" xmlns="http://www.w3.org/2000/svg"
 width="600.000000pt" height="600.000000pt" viewBox="0 0 600.000000 600.000000"
 preserveAspectRatio="xMidYMid meet">

<g transform="translate(0.000000,600.000000) scale(0.100000,-0.100000)"
fill="#000000" stroke="none">
<path d="M2303 5083 c-257 -474 -412 -837 -430 -1003 -5 -55 -1 -68 82 -286
l87 -228 -16 -156 c-28 -275 -38 -455 -35 -592 4 -128 5 -135 36 -188 17 -30
66 -102 109 -160 l77 -104 -52 -481 c-28 -264 -54 -496 -57 -516 -5 -34 -3
-36 73 -90 459 -326 809 -572 818 -575 12 -5 257 163 530 364 131 96 371 270
381 276 1 1 -24 232 -55 514 l-57 513 73 98 c104 141 140 212 147 291 8 77 -7
349 -34 617 l-20 193 81 216 c78 208 81 220 75 277 -13 126 -160 506 -322 829
-97 196 -196 379 -201 374 -2 -2 -29 -172 -58 -377 -117 -803 -112 -776 -155
-850 l-39 -66 -88 25 c-78 23 -107 25 -248 25 -140 0 -172 -3 -251 -25 l-91
-25 -41 66 -40 66 -81 565 c-45 311 -85 573 -89 583 -5 13 -34 -32 -109 -170z
m38 -481 c12 -94 11 -108 -10 -209 -42 -198 -132 -436 -199 -521 -18 -23 -18
-23 -55 80 -35 94 -37 108 -28 148 24 107 96 288 199 503 75 157 73 157 93 -1z
m1432 -38 c86 -185 159 -374 177 -455 12 -54 11 -60 -20 -145 -18 -49 -36 -92
-40 -97 -9 -10 -83 122 -119 215 -40 100 -77 231 -100 351 -18 91 -18 103 -3
202 9 58 19 102 23 98 5 -5 41 -80 82 -169z m-1155 -1279 c50 -15 171 -98 180
-123 3 -9 -33 -12 -147 -12 l-150 0 -26 37 c-31 46 -32 77 -3 97 28 20 80 20
146 1z m917 -5 c22 -18 18 -51 -10 -93 l-26 -37 -152 0 -152 1 49 45 c54 50
106 79 163 94 46 11 109 6 128 -10z m-958 -246 c2 -7 -3 -19 -12 -27 -21 -22
-19 -36 10 -49 19 -9 29 -7 51 6 21 15 25 24 22 52 -4 33 -3 34 29 34 28 0 33
-3 33 -24 0 -14 -11 -38 -25 -55 -61 -71 -170 -59 -209 24 -9 18 -16 38 -16
45 0 15 112 9 117 -6z m810 0 c2 -7 -3 -19 -12 -27 -21 -22 -19 -36 10 -49 19
-9 29 -7 51 7 22 14 25 22 21 51 -6 33 -5 34 29 34 29 0 34 -3 34 -24 0 -33
-43 -82 -84 -96 -57 -19 -124 9 -152 61 -26 52 -20 60 43 57 31 -2 58 -8 60
-14z m-602 -583 l17 -304 -27 -59 c-33 -72 -29 -86 43 -156 l54 -53 25 23 c24
23 25 23 39 4 47 -65 -36 -209 -136 -236 -81 -22 -182 20 -224 93 -46 79 -79
235 -92 437 l-7 105 -64 79 c-35 44 -60 82 -56 86 4 4 48 18 96 31 l89 24 111
124 c61 68 112 120 113 115 2 -5 10 -146 19 -313z m589 171 l88 -100 82 -22
c44 -12 87 -25 94 -29 10 -6 -5 -30 -52 -91 -65 -83 -66 -84 -66 -146 0 -92
-27 -281 -51 -360 -39 -130 -81 -178 -177 -204 -56 -14 -136 7 -174 47 -46 48
-76 170 -47 189 6 3 21 1 34 -6 21 -11 28 -9 64 19 50 40 81 82 81 111 0 12
-10 44 -21 71 -21 48 -21 54 -10 272 6 122 14 262 18 310 l6 89 21 -26 c12
-14 61 -70 110 -124z m-302 -1078 c37 -19 27 -33 -32 -44 -41 -8 -117 4 -134
20 -14 13 45 39 92 40 24 0 57 -7 74 -16z m-246 -65 c70 -79 278 -79 348 0 17
19 76 31 76 15 0 -19 -45 -76 -74 -93 -51 -32 -152 -54 -210 -46 -94 12 -189
70 -209 128 -9 26 45 23 69 -4z"/>
</g>
</svg>
